<svg width="286" height="148" viewBox="0 0 286 148" fill="none" xmlns="http://www.w3.org/2000/svg">
<g opacity="0.5">
<rect x="0.5" y="0.5" width="285" height="147" stroke="#F3F2F0"/>
<path d="M106.751 32C106.043 32 105.516 32.6292 105.578 33.398L111.545 106.403C111.608 107.172 112.217 107.97 112.899 108.176L138.216 115.845C138.898 116.052 140.014 116.052 140.696 115.845L166.091 108.164C166.773 107.958 167.383 107.16 167.445 106.391L173.421 33.398C173.485 32.6292 172.957 32 172.249 32H106.751ZM160.716 48.7433C160.659 49.4291 160.562 50.6197 160.499 51.3887L160.342 53.3041C160.278 54.0728 160.188 55.1722 160.141 55.7469C160.093 56.3218 160.048 56.7921 160.04 56.7921C160.032 56.7921 159.446 56.7921 158.739 56.7921H140.787C140.079 56.7921 139.494 56.7921 139.486 56.7921C139.479 56.7921 138.893 56.7921 138.185 56.7921H128.731C128.023 56.7921 127.496 57.4213 127.559 58.1901L128.11 64.9151C128.173 65.6837 128.804 66.3131 129.511 66.3131H138.186C138.893 66.3131 139.479 66.3131 139.487 66.3131C139.494 66.3131 140.079 66.3131 140.787 66.3131H155.697C156.405 66.3131 157.5 66.3131 158.131 66.3131C158.761 66.3131 159.23 66.8743 159.173 67.5601C159.116 68.2459 159.018 69.4368 158.955 70.2055L157.182 91.8864C157.118 92.6554 157.038 93.6377 157.004 94.0695C156.969 94.501 156.382 95.0228 155.7 95.2292L140.74 99.7544C140.058 99.9605 139.491 100.131 139.481 100.134C139.47 100.136 138.904 99.9692 138.222 99.763L123.246 95.2296C122.564 95.0232 121.954 94.2252 121.891 93.4562L120.927 81.6527C120.865 80.8837 121.392 80.2545 122.1 80.2545H123.467C124.175 80.2545 125.333 80.2545 126.04 80.2545H128.078C128.786 80.2545 129.416 80.8837 129.48 81.6527L129.858 86.2733C129.921 87.0423 130.531 87.8359 131.214 88.0372L138.219 90.1009C138.902 90.3022 139.464 90.467 139.467 90.467C139.47 90.467 140.031 90.3019 140.714 90.1006L147.732 88.0319C148.415 87.8306 149.026 87.0367 149.089 86.2681L149.85 77.0105C149.913 76.2415 149.386 75.6123 148.678 75.6123H140.787C140.079 75.6123 139.494 75.6123 139.487 75.6123C139.479 75.6123 138.893 75.6123 138.186 75.6123H121.719C121.011 75.6123 120.381 74.983 120.318 74.2143L118.451 51.3889C118.388 50.6199 118.29 49.4296 118.234 48.7435C118.178 48.0577 118.711 47.4964 119.419 47.4964H138.186C138.893 47.4964 139.479 47.4964 139.487 47.4964C139.494 47.4964 140.079 47.4964 140.787 47.4964H159.531C160.239 47.4961 160.772 48.0572 160.716 48.7433Z" fill="#DD512A"/>
</g>
</svg>
